<?xml version="1.0" encoding="UTF-8"?>
<svg id="Camada_1" data-name="Camada 1" xmlns="http://www.w3.org/2000/svg" viewBox="0 0 256.02 252.11">
  <defs>
    <style>
      .cls-1 {
        fill: #2cc0f4;
      }
    </style>
  </defs>
  <path class="cls-1" d="M232.97,55.74c-.78-1.07-1.26-1.74-1.75-2.4C200.53,12.49,159.67-5.34,109.11,1.38,75.36,5.87,48.07,22.79,27.3,49.9c-8.06,10.52-14.19,22.11-18.55,34.62-2.4,6.88,1.87,13.48,8.85,13.82,4.84,.24,8.38-2.6,10.42-8.34C44.58,43.35,92.38,14.03,141.35,20.69c27.55,3.75,50.42,16.27,68.43,37.51,1.77,2.09,3.36,4.35,5.03,6.53-4.39-.62-8.39-1.73-12.42-2.65-5.65-1.29-10.85,1.79-12.23,7.11-1.38,5.34,1.66,10.72,7.21,12.2,12.21,3.27,24.45,6.44,36.7,9.53,5.62,1.41,10.81-1.54,12.28-7.04,3.23-12.05,6.33-24.13,9.37-36.23,1.15-4.58-1.25-9.18-5.51-11.16-5.5-2.56-11.9,.17-13.7,6.02-1.29,4.2-2.28,8.49-3.54,13.24ZM22.98,196.59c.46,.43,.59,.53,.69,.66,.35,.47,.67,.95,1.02,1.42,30.67,40.86,71.52,58.75,122.08,52.07,34.54-4.56,62.21-22.05,83.05-50.05,7.56-10.15,13.32-21.29,17.47-33.24,2.31-6.65-1.74-13-8.56-13.65-4.88-.47-8.51,2.49-10.77,8.22-16.39,41.62-46.93,65.52-91.32,69.71-34.49,3.26-63.87-9.2-87.59-34.57-2.85-3.05-5.32-6.45-7.96-9.69,2.42,.02,4.41,.54,6.41,1.05,2.1,.53,4.18,1.12,6.29,1.57,5.56,1.19,10.68-1.81,12.07-7.03,1.43-5.36-1.56-10.78-7.08-12.27-12.29-3.3-24.6-6.5-36.94-9.59-5.62-1.41-10.77,1.6-12.24,7.12-3.19,11.97-6.28,23.98-9.3,35.99-1.28,5.08,1.57,10.08,6.46,11.75,5.44,1.86,11.1-1.04,12.8-6.74,1.24-4.13,2.24-8.32,3.41-12.73Z"/>
  <path class="cls-1" d="M232.97,55.74c1.26-4.76,2.25-9.05,3.54-13.24,1.8-5.84,8.2-8.57,13.7-6.02,4.26,1.98,6.66,6.58,5.51,11.16-3.04,12.1-6.14,24.18-9.37,36.23-1.47,5.5-6.67,8.46-12.28,7.04-12.26-3.09-24.49-6.26-36.7-9.53-5.55-1.48-8.59-6.87-7.21-12.2,1.38-5.32,6.58-8.4,12.23-7.11,4.04,.92,8.03,2.03,12.42,2.65-1.67-2.18-3.25-4.43-5.03-6.53-18.02-21.23-40.89-33.76-68.43-37.51C92.38,14.03,44.58,43.35,28.02,90c-2.04,5.74-5.58,8.58-10.42,8.34-6.98-.34-11.25-6.94-8.85-13.82,4.36-12.51,10.49-24.1,18.55-34.62C48.07,22.79,75.36,5.87,109.11,1.38c50.56-6.72,91.41,11.11,122.11,51.95,.5,.66,.97,1.33,1.75,2.4Z"/>
  <path class="cls-1" d="M22.98,196.59c-1.17,4.41-2.18,8.6-3.41,12.73-1.7,5.69-7.36,8.6-12.8,6.74-4.88-1.67-7.74-6.67-6.46-11.75,3.03-12.02,6.11-24.02,9.3-35.99,1.47-5.52,6.62-8.52,12.24-7.12,12.34,3.1,24.65,6.29,36.94,9.59,5.53,1.48,8.52,6.91,7.08,12.27-1.39,5.21-6.51,8.22-12.07,7.03-2.11-.45-4.2-1.04-6.29-1.57-2-.51-3.99-1.03-6.41-1.05,2.64,3.24,5.11,6.65,7.96,9.69,23.72,25.36,53.11,37.82,87.59,34.57,44.39-4.19,74.93-28.09,91.32-69.71,2.26-5.73,5.89-8.68,10.77-8.22,6.82,.65,10.86,7,8.56,13.65-4.15,11.95-9.91,23.09-17.47,33.24-20.85,28-48.52,45.49-83.05,50.05-50.56,6.67-91.41-11.21-122.08-52.07-.35-.47-.68-.95-1.02-1.42-.1-.13-.23-.23-.69-.66Z"/>
</svg>